Coordinates
version=1
nRows=14
nColumns=24
inDegrees=yes

Units are S.I. units (second, meters, Newtons, ...)
If the header above contains a line with 'inDegrees', this indicates whether rotational values are in degrees (yes) or radians (no).

endheader
time	pelvis_tilt	pelvis_list	pelvis_rotation	pelvis_tx	pelvis_ty	pelvis_tz	hip_flexion_r	hip_adduction_r	hip_rotation_r	knee_angle_r	ankle_angle_r	subtalar_angle_r	mtp_angle_r	hip_flexion_l	hip_adduction_l	hip_rotation_l	knee_angle_l	ankle_angle_l	subtalar_angle_l	mtp_angle_l	lumbar_extension	lumbar_bending	lumbar_rotation
      0.00000000000000000000	     -9.62313176357143618134	      5.32001138204585188873	      1.59386135124812078345	      0.05314656896043674916	      0.83831570170783398233	     -0.00701561173041475705	     38.18411974129706010217	     -3.68147794093838598428	      2.36492959646741862656	    -24.18639801043917358925	     -3.63158782336967034254	      0.00000000000000000000	      0.00000000000000000000	     -2.76544679476836297027	      8.41184349559206800961	      5.34168567860858178875	    -27.35883690821358626977	      8.03384433163997080385	      0.00000000000000000000	      0.00000000000000000000	     -3.85701487263677478268	    -10.41508590473610240679	    -22.03096871992640615190
      0.00833333333333333322	     -5.19242689937856116700	      2.40570254702103936140	      1.99056493576953186242	      0.05748997255834463471	      0.84677102511714985589	     -0.00806253416886210973	     31.99644677396559089289	     -1.18101473863745320969	      0.52460737877962670961	    -23.82794439827133103904	     -2.51530958448061348065	      0.00000000000000000000	      0.00000000000000000000	     -7.14651981445471573551	      5.15026914233841992541	      5.55638139547446208155	    -29.23920442075516845648	      6.66623047204372021213	      0.00000000000000000000	      0.00000000000000000000	     -9.83358642005240213280	     -4.55297460273310683476	    -13.78482539077832491614
      0.01666666666666666990	     -5.08974281813735984770	      1.76670506127077264757	      2.15615251089982429278	      0.05866281735100273981	      0.84719345781690047481	     -0.00714614660607168408	     31.84090860964143132605	     -0.43726203204045804851	      0.61199634377024714205	    -25.41156044069933273022	     -1.18703614846523852755	      0.00000000000000000000	      0.00000000000000000000	     -5.97172193019066721575	      4.49228667204478604447	      5.59372568100804645752	    -32.55269787004104387051	      5.30697372579755199951	      0.00000000000000000000	      0.00000000000000000000	     -9.78178388702935919241	     -3.74952426215888134919	    -13.92210732464029909750
      0.02500000000000000139	     -5.07462774133383565101	      1.14522294016990389132	      2.39279795438506637240	      0.05975378381922116788	      0.84742345246730022001	     -0.00622526671771948033	     31.70610364501699507400	      0.23007282686341865019	      0.51942896381229319847	    -26.82740483598357883466	      0.02283938028070608278	      0.00000000000000000000	      0.00000000000000000000	     -4.50367699614682415188	      3.83447569578402580603	      5.73188412835543381618	    -36.04608718290795366102	      3.58685233170551587278	      0.00000000000000000000	      0.00000000000000000000	     -9.62438977565775211076	     -2.98279776744582303394	    -14.05372366878518519684
      0.03333333333333333287	     -5.09561427599719607429	      0.45153220081206468794	      2.69132123901586206571	      0.06074774300563380580	      0.84747386029436566623	     -0.00533580680438870084	     31.46241879482249359512	      0.91836680582098673131	      0.22272381687469175460	    -27.89209076508944917805	      1.04128499243203598290	      0.00000000000000000000	      0.00000000000000000000	     -2.81088748613276573352	      3.08506114469690384539	      5.90052246116355494365	    -39.68581128673312008459	      1.56101362908762308912	      0.00000000000000000000	      0.00000000000000000000	     -9.41673441109714737252	     -2.13871539166251434239	    -14.19919612957356669369
      0.04166666666666665741	     -5.17618424970645740757	     -0.34332157398880330801	      3.05768125722693895341	      0.06148897103287834925	      0.84733882260513182505	     -0.00458147290452787150	     31.10658258600417980233	      1.66204427224158579612	     -0.20804869611223331116	    -28.53344374643672409775	      1.93952816527721250139	      0.00000000000000000000	      0.00000000000000000000	     -0.86221296923483503605	      2.24003805695782753915	      6.14819823809754151256	    -43.47898966963336420122	     -0.63624192788659039710	      0.00000000000000000000	      0.00000000000000000000	     -9.15686700530724628777	     -1.16950795051537048685	    -14.36577198197373483879
      0.05000000000000000278	     -5.39995552468542516777	     -1.22576594700205587785	      3.45574151106042437576	      0.06191539989669043315	      0.84695444277098419494	     -0.00399583748445420626	     30.77590175013902040746	      2.47537502210326154639	     -0.69501835334468997640	    -28.86149659393085187276	      2.75950080418692422768	      0.00000000000000000000	      0.00000000000000000000	      1.41957742598421976510	      1.34162049522586168671	      6.47746500559698912269	    -47.37278524558093550922	     -3.05305987909656195711	      0.00000000000000000000	      0.00000000000000000000	     -8.74324251400685881208	     -0.09491915635035365340	    -14.47835827992982693502
      0.05833333333333332732	     -5.61196543185985596836	     -2.23717551215838916789	      3.88084024102182434390	      0.06215029215825216419	      0.84658065513886615605	     -0.00371100594678989548	     30.34997461279330366324	      3.38682279317931733686	     -1.33326034749857802453	    -28.97873038174780546683	      3.58818355346173367693	      0.00000000000000000000	      0.00000000000000000000	      3.79541713266415436934	      0.34414463014579943501	      6.85235955742887359321	    -51.18026885400573178231	     -5.61956076364827428193	      0.00000000000000000000	      0.00000000000000000000	     -8.34429997550538082862	      1.16591853634704634146	    -14.41346127356721495971
      0.06666666666666666574	     -5.85096630396697658938	     -3.25271555604217210700	      4.27724430308395042744	      0.06223975297532336609	      0.84621495238300792341	     -0.00355821775677416787	     29.92939387671452422524	      4.30895504993456235354	     -2.02219169189630409988	    -29.01647411753245719979	      4.41864886323413674774	      0.00000000000000000000	      0.00000000000000000000	      6.23304226240568848283	     -0.63650323637624761641	      7.20509646833411299127	    -54.69293308417912413688	     -8.70578429197385972316	      0.00000000000000000000	      0.00000000000000000000	     -7.91672990959350109108	      2.43049230498069546158	    -14.31994471701246141038
      0.07499999999999999722	     -6.00307376449425600384	     -4.23813062997328504622	      4.63272292649531980402	      0.06229573108484420113	      0.84609239450627349299	     -0.00356034321716914778	     29.37370838822098306764	      5.21279412993150170763	     -2.74718674217261593640	    -28.94673717449833816318	      5.13440852055999297221	      0.00000000000000000000	      0.00000000000000000000	      8.53530023662847803223	     -1.56649861312515437106	      7.57090691257656889235	    -57.84246295535275805832	    -12.12931721280928520912	      0.00000000000000000000	      0.00000000000000000000	     -7.58581020307915920853	      3.67142474006461272396	    -14.04767013038363110411
      0.08333333333333332871	     -6.13414324567736635174	     -5.15880590678196782051	      4.95304616376456419147	      0.06221289484415171156	      0.84610306555536396456	     -0.00365786069260723131	     28.77395508874324647763	      6.05696752027579332633	     -3.45529254733509016972	    -28.79368245259365011179	      5.74701623757750468258	      0.00000000000000000000	      0.00000000000000000000	     10.79847376695456695472	     -2.40202815730242003056	      7.92607732528167208130	    -60.78799583845966481022	    -14.82507508773694659965	      0.00000000000000000000	      0.00000000000000000000	     -7.29367546801246913191	      4.83065173920518375894	    -13.65458572792639735383
      0.09166666666666666019	     -6.27545548158271682126	     -6.03367990323283187593	      5.20935312251990190191	      0.06196242567838349674	      0.84616393548385260281	     -0.00365403547543035820	     28.18166429691650876066	      6.88915465470240828694	     -4.06201271813934194910	    -28.57983509874761907099	      6.32686608963164154318	      0.00000000000000000000	      0.00000000000000000000	     13.06977002240948770861	     -3.19618650119795066900	      8.20349581520746085062	    -63.60633141000899115625	    -15.83602873187664350496	      0.00000000000000000000	      0.00000000000000000000	     -7.01047582135380142887	      5.90599498272437006818	    -13.13495945684028498590
      0.10000000000000000555	     -6.40787934156809946273	     -6.86096830811733315869	      5.37750518347168959821	      0.06166333461785909048	      0.84632918274348512000	     -0.00344661091744949888	     27.55493495572900997104	      7.73615219252934949168	     -4.49910511606948393393	    -28.28792505431470161170	      6.81634990557770947817	      0.00000000000000000000	      0.00000000000000000000	     15.28030719735996889597	     -3.98765462456676944569	      8.36512343365097343906	    -66.21791132755792830267	    -15.20963423859284091577	      0.00000000000000000000	      0.00000000000000000000	     -6.75158805633397562929	      6.88032666187644537104	    -12.51623668867626903989
      0.10833333333333329540	     -6.43655271099862158479	     -7.57252686752087722510	      5.44741663957968125231	      0.06141988850682205542	      0.84684317892656735260	     -0.00301339313897506763	     26.75911666554371848292	      8.55301439693466036829	     -4.74368858843887064580	    -27.91033070013248362784	      7.24491205596947374090	      0.00000000000000000000	      0.00000000000000000000	     17.25453938911285334257	     -4.72602335855202770887	      8.38595795096671992042	    -68.53015527440879850474	    -13.42203538023506403931	      0.00000000000000000000	      0.00000000000000000000	     -6.63373575214203636818	      7.68738389173932556986	    -11.76249301260662072366
